<svg viewBox="0 0 64 64" fill="none" xmlns="http://www.w3.org/2000/svg">
  <defs>
    <linearGradient id="igGradient" x1="0%" y1="100%" x2="100%" y2="0%">
      <stop offset="0%" style="stop-color:#FD5949;stop-opacity:1" />
      <stop offset="5%" style="stop-color:#D6249F;stop-opacity:1" />
      <stop offset="45%" style="stop-color:#285AEB;stop-opacity:1" />
    </linearGradient>
  </defs>
  <circle cx="32" cy="32" r="32" fill="url(#igGradient)"/>
  <path d="M32 22C26.48 22 22 26.48 22 32C22 37.52 26.48 42 32 42C37.52 42 42 37.52 42 32C42 26.48 37.52 22 32 22ZM32 38.5C28.96 38.5 26.5 36.04 26.5 33C26.5 29.96 28.96 27.5 32 27.5C35.04 27.5 37.5 29.96 37.5 33C37.5 36.04 35.04 38.5 32 38.5ZM41.5 23.5C42.33 23.5 43 22.83 43 22C43 21.17 42.33 20.5 41.5 20.5C40.67 20.5 40 21.17 40 22C40 22.83 40.67 23.5 41.5 23.5Z" fill="white"/>
</svg>
